<svg width="120" height="32" viewBox="0 0 120 32" fill="none" xmlns="http://www.w3.org/2000/svg">
<path d="M8.2182 23.992H5.5537V1.88989H0V1.56957H13.804V1.88989H8.2182V23.992Z" fill="#232323"/>
<path d="M16.6428 16.1762C16.6428 18.8242 17.1029 20.7674 18.0232 22.006C18.9649 23.2446 20.1955 23.8639 21.715 23.8639C23.8551 23.8639 25.7599 23.5435 27.4292 22.9029L27.5255 23.1271C25.8134 23.7891 23.8765 24.1201 21.715 24.1201C19.5748 24.1201 17.8306 23.4795 16.4823 22.1982C15.134 20.9169 14.4598 18.9416 14.4598 16.2723C14.4598 13.6029 15.1661 11.5315 16.5786 10.0581C17.9911 8.58458 19.7888 7.84785 21.9718 7.84785C23.7267 7.84785 25.2034 8.37104 26.4019 9.41742C27.6004 10.4638 28.1996 12.012 28.1996 14.0621C28.1996 14.1688 28.1996 14.2756 28.1996 14.3824H16.7391C16.6749 14.959 16.6428 15.5569 16.6428 16.1762ZM26.0167 14.1261C25.9953 12.0761 25.5993 10.5599 24.8289 9.57758C24.0584 8.59526 23.0633 8.1041 21.8434 8.1041C20.6235 8.1041 19.532 8.63797 18.5689 9.70571C17.6273 10.7734 17.028 12.2469 16.7712 14.1261H26.0167Z" fill="#232323"/>
<path d="M39.8535 9.0971C39.5111 8.81949 38.9547 8.58458 38.1842 8.39239C37.4352 8.2002 36.868 8.1041 36.4828 8.1041C36.0976 8.1041 35.8728 8.1041 35.8086 8.1041C34.653 8.12546 33.8183 8.42442 33.3047 9.001C32.791 9.55622 32.5342 10.1862 32.5342 10.8909C32.5342 11.5956 32.7589 12.1935 33.2084 12.6847C33.6578 13.1545 34.2142 13.5282 34.8777 13.8058C35.5625 14.0621 36.2902 14.361 37.0606 14.7027C37.8525 15.0444 38.5801 15.3967 39.2436 15.7598C39.9284 16.1014 40.4956 16.6139 40.945 17.2973C41.3944 17.9593 41.6192 18.7921 41.6192 19.7958C41.6192 20.7995 41.266 21.6537 40.5598 22.3584C39.8535 23.0631 39.0617 23.5329 38.1842 23.7678C37.3281 24.0027 36.3972 24.1201 35.3913 24.1201C33.2084 24.1201 31.5711 23.6396 30.4797 22.6787L30.6723 22.4865C31.1003 22.8922 31.7316 23.2232 32.5663 23.4795C33.4224 23.7357 34.2463 23.8639 35.0382 23.8639C36.3009 23.8639 37.3389 23.5222 38.1521 22.8388C38.9868 22.1341 39.4041 21.2693 39.4041 20.2442C39.4041 19.1979 39.0938 18.365 38.4731 17.7457C37.8525 17.1051 37.0927 16.6139 36.1939 16.2723C35.3164 15.9092 34.4282 15.5569 33.5294 15.2152C32.6305 14.8522 31.8708 14.361 31.2501 13.7417C30.6295 13.1011 30.3191 12.3644 30.3191 11.5315C30.3191 10.6987 30.5118 10.026 30.897 9.51351C31.2822 8.97965 31.7958 8.60594 32.4379 8.39239C33.5294 8.02936 34.6209 7.84785 35.7123 7.84785C37.5529 7.84785 38.9868 8.18952 40.014 8.87287L39.8535 9.0971Z" fill="#232323"/>
<path d="M43.8623 8.23223V7.97598H44.5365V4.77277H46.7836V7.97598H51.6953V8.23223H46.7836V19.8919C46.7836 21.2799 46.9334 22.2836 47.2331 22.9029C47.5541 23.5222 48.2068 23.8318 49.1913 23.8318C50.1972 23.8318 51.2137 23.629 52.241 23.2232L52.3373 23.4795C51.2672 23.8852 50.0367 24.0881 48.6456 24.0881C47.2759 24.0881 46.2486 23.8105 45.5637 23.2553C44.8789 22.6787 44.5365 21.5469 44.5365 19.8599V8.23223H43.8623Z" fill="#232323"/>
<path d="M68.4146 23.992C66.5312 23.992 65.3434 23.5008 64.8512 22.5185C64.7442 22.305 64.6907 22.1128 64.6907 21.9419V0H66.9379V21.7177C66.9379 22.337 67.0556 22.8175 67.291 23.1592C67.5478 23.4795 67.8046 23.6503 68.0614 23.6717L68.4146 23.7357H69.4097V23.992H68.4146Z" fill="#232323"/>
<path d="M77.8396 24.1201C75.5924 24.1201 73.7626 23.4795 72.3501 22.1982C70.9376 20.9169 70.2314 18.9416 70.2314 16.2723C70.2314 13.6029 70.959 11.5315 72.4143 10.0581C73.891 8.58458 75.753 7.84785 78.0001 7.84785C80.2687 7.84785 82.1092 8.48849 83.5217 9.76977C84.9342 11.0511 85.6405 13.0264 85.6405 15.6957C85.6405 18.365 84.9021 20.4364 83.4254 21.9099C81.9701 23.3834 80.1082 24.1201 77.8396 24.1201ZM78.0643 8.1041C76.4378 8.1041 75.0895 8.83016 74.0194 10.2823C72.9494 11.713 72.4143 13.7204 72.4143 16.3043C72.4143 18.8669 72.9066 20.7674 73.891 22.006C74.8755 23.2446 76.181 23.8639 77.8075 23.8639C79.434 23.8639 80.7823 23.1485 81.8524 21.7177C82.9225 20.2656 83.4575 18.2583 83.4575 15.6957C83.4575 13.1118 82.9653 11.2005 81.9808 9.96196C80.9963 8.72339 79.6908 8.1041 78.0643 8.1041Z" fill="#232323"/>
<path d="M88.0344 16.5606C88.0344 13.7845 88.7085 11.6383 90.0568 10.1221C91.4051 8.60594 93.4276 7.84785 96.1241 7.84785C98.1145 7.84785 100.137 8.2002 102.191 8.9049V24.3764C102.17 29.4588 99.9443 32 95.5142 32C93.0744 32 90.9878 31.2099 89.2542 29.6296L89.479 29.4374C91.3195 30.975 93.3312 31.7437 95.5142 31.7437C98.4676 31.7437 99.9443 29.288 99.9443 24.3764V21.2052C99.5377 21.9526 98.8635 22.6146 97.9219 23.1912C96.9802 23.7678 95.8673 24.0561 94.5832 24.0561C90.2173 23.9493 88.0344 21.4508 88.0344 16.5606ZM94.6153 23.7998C96.0492 23.7998 97.2798 23.4154 98.3071 22.6466C99.3344 21.8779 99.8801 21.1198 99.9443 20.3724V9.06506C98.4034 8.42442 97.0979 8.1041 96.0278 8.1041C94.1231 8.1041 92.6892 8.85152 91.7261 10.3463C90.7631 11.8198 90.2815 13.8912 90.2815 16.5606C90.2815 21.3867 91.7261 23.7998 94.6153 23.7998Z" fill="#232323"/>
<path d="M112.199 24.1201C109.952 24.1201 108.122 23.4795 106.71 22.1982C105.297 20.9169 104.591 18.9416 104.591 16.2723C104.591 13.6029 105.319 11.5315 106.774 10.0581C108.251 8.58458 110.112 7.84785 112.36 7.84785C114.628 7.84785 116.469 8.48849 117.881 9.76977C119.294 11.0511 120 13.0264 120 15.6957C120 18.365 119.262 20.4364 117.785 21.9099C116.33 23.3834 114.468 24.1201 112.199 24.1201ZM112.424 8.1041C110.797 8.1041 109.449 8.83016 108.379 10.2823C107.309 11.713 106.774 13.7204 106.774 16.3043C106.774 18.8669 107.266 20.7674 108.251 22.006C109.235 23.2446 110.541 23.8639 112.167 23.8639C113.794 23.8639 115.142 23.1485 116.212 21.7177C117.282 20.2656 117.817 18.2583 117.817 15.6957C117.817 13.1118 117.325 11.2005 116.34 9.96196C115.356 8.72339 114.05 8.1041 112.424 8.1041Z" fill="#232323"/>
</svg>
